<svg xmlns="http://www.w3.org/2000/svg" viewBox="0 0 389.13 149.68"><defs><style>.a{fill:#595553;}.b{fill:#4a8b2c;}.c{fill:#fff;}.d{fill:#1e1e1c;}</style></defs><path class="a" d="M111.34,112.31a12.6,12.6,0,0,1-12.61,12.61H29.37A12.62,12.62,0,0,1,16.76,112.3V42.94A12.6,12.6,0,0,1,29.37,30.33H98.74a12.62,12.62,0,0,1,12.61,12.62Z"/><path class="b" d="M87.12,48.76,80,61.8,93,54.64a27,27,0,1,0-5.89-5.88Z"/><path class="c" d="M131.33,10.43A31.62,31.62,0,0,0,81.8,49L76,59.59,68.42,73.34l13.75-7.55L92.79,60a31.62,31.62,0,0,0,38.54-49.53Zm-3.23,3.23A27.06,27.06,0,0,1,93,54.64L80,61.8l7.16-13a27.06,27.06,0,0,1,41-35.1Z"/><path class="c" d="M104.39,92.54V110.3q-.06,7.8-7.92,7.81H73.89V74.42h9.86V84.51H96.48C101.67,84.51,104.32,87.18,104.39,92.54ZM83.81,94.42v13.76H92a2.19,2.19,0,0,0,2.46-2.51V97a2.25,2.25,0,0,0-2.58-2.52Z"/><path class="c" d="M23.71,84.51H61.14a8.3,8.3,0,0,1,3.3.63,7.28,7.28,0,0,1,2.46,1.69,7.59,7.59,0,0,1,1.56,2.53A8.78,8.78,0,0,1,69,92.43v25.68H59.13V97a2.36,2.36,0,0,0-2.57-2.52H51.29V118.1H41.42V94.43H35.91c-1.56,0-2.32.79-2.22,2.39V118.1H31.63a8.41,8.41,0,0,1-3.15-.57,7.29,7.29,0,0,1-2.5-1.64,7.58,7.58,0,0,1-1.66-2.52,8.27,8.27,0,0,1-.61-3.18V84.51Z"/><path class="b" d="M214,112.61c0-.37-.28-.74-.92-.74l-.24,0a2.24,2.24,0,0,1-.43,0,4.21,4.21,0,0,1-3.32-1.78,2.12,2.12,0,0,0-1.88-1,1.29,1.29,0,0,0,.18-.71c0-.88-1-.88-1.36-.88a5.35,5.35,0,0,0-2.4.64c-4.79,2.69-6.05,8.82-6.05,11.69,0,2.44,1.1,6.06,4.14,6.06s4.75-2.66,5.82-4.24c1.39-2,2.07-4.61,2.14-8.06a8.36,8.36,0,0,0,1.43.12C211.85,113.77,214,113.77,214,112.61ZM202.17,123.9c-1.06,0-1.28-2.15-1.28-4,0-2.8,1-8,3.77-10a2.13,2.13,0,0,1,1.39-.48h.38a1.49,1.49,0,0,0-.54,1.13,1.35,1.35,0,0,0,.43,1,2.59,2.59,0,0,0,1,.65l.17.07s.13.28.13,1.42C207.66,118.79,204.14,123.9,202.17,123.9Z"/><path class="b" d="M223.84,110.13a2.67,2.67,0,0,0,2.15,1.06c1.2,0,2.22-.65,2.22-1.41a.77.77,0,0,0-.63-.83,1.21,1.21,0,0,1-.36-.16,3.34,3.34,0,0,1-.86-.93,2.45,2.45,0,0,0-2.1-1.35c-2.58,0-5.18,3.76-7.25,7.91.18-1,.33-1.81.44-2.48s.18-1,.25-1.41L218,109c0-1.49-.93-1.6-1.21-1.6a1.85,1.85,0,0,0-1,.36,3.74,3.74,0,0,1-1.84.64,2.77,2.77,0,0,1-.75-.17,2.47,2.47,0,0,0-.74-.16.76.76,0,0,0-.83.78c0,.83,1.08,1.45,2.51,1.45a7.23,7.23,0,0,0,1-.07c-.63,4.79-1.12,7.87-1.58,9.93-.27,1.29-.52,2.5-.77,3.53q0,.16-.06.3a3.2,3.2,0,0,0-.09.68.94.94,0,0,0,1,1.07c.92,0,1.26-1,1.38-1.38,1.83-5.14,6.07-14.73,8.07-14.73C223.35,109.6,223.52,109.77,223.84,110.13Z"/><path class="b" d="M255.36,122.39l-.21-.1s-1.73-1.35-1.73-5.48a19.55,19.55,0,0,1,.32-3.53,3.83,3.83,0,0,1,.33-.81,1.73,1.73,0,0,0,.26-.74,1,1,0,0,0-1-.92c-1.34,0-1.69,1.43-1.89,2.29,0,.17-.08.32-.12.44-.32.91-4.09,5.18-5.56,6.5a1.91,1.91,0,0,1-1,.59h-.08a2,2,0,0,1-.05-.56,8.54,8.54,0,0,1,.09-1l0-.25c.35-1.37,3.16-7.48,6.33-9.2a1.22,1.22,0,0,1,.47-.15c.07,0,.24.17.34.26a1.7,1.7,0,0,0,1.15.6,1,1,0,0,0,1-1,2.16,2.16,0,0,0-2.12-1.93c-4.31,0-9.15,5.89-10.06,11.69a1.08,1.08,0,0,0-.58-.15h-.39a4,4,0,0,0-1.1.14c0-.49.06-1,.06-1.42a17.7,17.7,0,0,0-1-6.47h0c-.2-.62-.37-1.05-.94-1.2a1.25,1.25,0,0,0,.53-.9c0-.8-1.6-1.79-2.89-1.79-1.52,0-3.33,1-5.11,2.84-2,2.11-5.12,6.85-5.12,10.6a2,2,0,0,0,2.27,2.12c2.84,0,7.2-4.66,9.28-8a13.47,13.47,0,0,1,.15,1.93,30.78,30.78,0,0,1-.17,3.21,35.8,35.8,0,0,0-8.48,9.07c-2.3,3.47-6.17,10.07-6.17,15.23,0,2.46.85,3.71,2.51,3.71,6,0,10.64-11.2,12.35-16a42.57,42.57,0,0,0,2.61-10.69,2.6,2.6,0,0,1,1.6-.76,2,2,0,0,0,.47-.12c0,.18,0,.36,0,.53,0,.77.6,2.27,2,2.27a5.15,5.15,0,0,0,3.4-1.47,44.44,44.44,0,0,0,4-4.47c.2,3.93,2,5.73,2.82,6.14a2.62,2.62,0,0,0,1.39.38c.62,0,.69-.38.69-.55A.87.87,0,0,0,255.36,122.39Zm-19.42-11.2a1,1,0,0,0,.14.5l0,.08,0,0A31.08,31.08,0,0,1,232,117.7l-.09.1c-.72.77-1.41,1.5-2.08,2.12-1,.93-1.59,1-1.8,1,0,0-.06-.07-.06-.32,0-2.25,3.39-7.74,4.94-9.28,1.22-1.23,2.34-2,2.85-2,.1,0,.33.24.46.36a2.32,2.32,0,0,0,.49.4A1.2,1.2,0,0,0,235.94,111.19Zm-1.79,20.31c-3,8.85-6.61,14.57-9.12,14.57-.51,0-.66-.28-.66-2.1,0-6.29,6.74-16.94,12.24-21.27A63.91,63.91,0,0,1,234.15,131.5Z"/><path class="b" d="M280.47,106.14l.17,0c.68,0,1.86-.35,2.17-2.79,0-1.39-.7-1.6-1.12-1.6-1.11,0-2.07,1.87-2.07,2.79C279.62,105.66,280.15,106,280.47,106.14Z"/><path class="b" d="M278.19,124.15a1.21,1.21,0,0,0,1.32-1.07.85.85,0,0,0-.71-.85c-.31-.11-.83-.28-.83-2.51a24.9,24.9,0,0,1,1.85-8.23,1.7,1.7,0,0,0,.31-.88c0-.67-.68-1-1.36-1-1,0-1.53,1-1.7,1.39a26.16,26.16,0,0,0-1.43,4.84,5.58,5.58,0,0,0-1.28,1.58c-.77,1.16-1.93,2.91-2.89,2.91-2,0-2.51-4.53-2.62-5.93l0-.19c-.15-1.49-.37-3.75-2.06-3.75-1.11,0-1.94,1-2.41,1.63s-3.09,4.29-4.72,6.7l1.59-8a1.12,1.12,0,0,0-1.26-1.16c-.84,0-1.07.9-1.16,1.25-.66,3.09-1.16,5.33-1.52,7a28.68,28.68,0,0,0-.94,5,1.18,1.18,0,0,0,1.22,1.31,1.71,1.71,0,0,0,1.5-1,105.83,105.83,0,0,1,7-8.85c.1.36.2,1,.29,1.45.48,2.74,1.21,6.89,4.13,6.89,2.3,0,3.82-1.74,4.9-3.43C275.41,121.08,275.75,124.15,278.19,124.15Z"/><path class="b" d="M307.36,123.38l-.21-.1s-1.73-1.35-1.73-5.48a20.5,20.5,0,0,1,.32-3.53,3.83,3.83,0,0,1,.33-.81,1.73,1.73,0,0,0,.26-.74,1,1,0,0,0-1-.93c-1.34,0-1.69,1.44-1.89,2.3a4.08,4.08,0,0,1-.12.43c-.31.92-4.09,5.19-5.56,6.51a1.84,1.84,0,0,1-1,.59h-.08a2,2,0,0,1,0-.56,6.8,6.8,0,0,1,.1-1l0-.25c.35-1.37,3.16-7.48,6.33-9.2a1.37,1.37,0,0,1,.47-.16c.07,0,.24.18.34.27a1.72,1.72,0,0,0,1.15.6,1,1,0,0,0,1-1,2.16,2.16,0,0,0-2.12-1.93c-4.17,0-8.84,5.5-10,11.11a1,1,0,0,0-.67-.22h0l-.38,0a7.52,7.52,0,0,0-1.3.27,4.75,4.75,0,0,0-.19-.83,5.74,5.74,0,0,0-1.29-2.23,7.48,7.48,0,0,0,3.13-5.34,3.47,3.47,0,0,0-3.7-3.37,10.23,10.23,0,0,0-6.78,2.85,1.41,1.41,0,0,0-.81,1.14.77.77,0,0,0,.83.83,1.48,1.48,0,0,0,.93-.4l.12-.09c1.6-1.28,3-2.39,5.76-2.39,1,0,1.51.48,1.51,1.38,0,2.41-3.06,4.78-5.35,4.78-1.7,0-1.88,1.08-1.88,1.55a1.56,1.56,0,0,0,1.74,1.59,4.39,4.39,0,0,0,1.46-.26,1.62,1.62,0,0,1,.5-.12c.6,0,1,1.29,1,1.8-7.21,4.65-14.86,18.35-14.86,24.64,0,2.94,1.63,3.37,2.61,3.37,6.19,0,11-11.24,12.34-14.69a41.14,41.14,0,0,0,2.95-12.14,1.71,1.71,0,0,1,1.4-.67,1.9,1.9,0,0,0,.7-.16,10.88,10.88,0,0,0-.06,1.14c0,.77.6,2.27,2,2.27a5.13,5.13,0,0,0,3.4-1.47,44.44,44.44,0,0,0,4-4.47c.2,3.93,2,5.73,2.83,6.14a2.54,2.54,0,0,0,1.38.37c.62,0,.69-.37.69-.54A.86.86,0,0,0,307.36,123.38Zm-22,10.06c-2.05,5.22-4.29,9.28-6.32,11.44-1.21,1.26-2.07,1.71-2.47,1.71-.14,0-.56,0-.56-1.32,0-5.84,6.35-17.87,12.41-22.08A63.72,63.72,0,0,1,285.39,133.44Z"/><path class="b" d="M319.32,119.58c0-2-1.73-3.73-3.41-5.39-1.4-1.4-2.73-2.72-2.73-3.91a1.88,1.88,0,0,1,2.09-1.91,4.24,4.24,0,0,1,2.24,1,2.72,2.72,0,0,0,1.41.68c.33,0,1.11-.12,1.21-1.26,0-1.36-2.42-2.51-3.94-2.51-3,0-5.87,2.46-5.87,5,0,2.22,1.59,3.63,3.13,5s2.77,2.47,2.77,4.2c0,1.46-1.51,1.76-2.77,1.76-.69,0-3.63-.62-3.63-1.85a.79.79,0,0,0-.78-.88,1.09,1.09,0,0,0-1.16,1.17c0,2.42,3.63,3.46,5.48,3.46C315.85,124.19,319.32,122.44,319.32,119.58Z"/><path class="b" d="M336.27,118.65a5.29,5.29,0,0,0-1.1.22,50.6,50.6,0,0,0,.3-5.48c0-2.52-.16-3.7-1.6-3.7-1.67,0-2.05,1-2.12,1.59-.12,1.24-4.79,7.27-5.76,8.23-1.12,1.13-1.88,1.63-2.47,1.63-.26,0-.52,0-.52-1,.14-2.56,2.68-7.7,3.26-8.69a1.16,1.16,0,0,0,.29-.78c0-.67-.69-1.07-1.36-1.07a1.76,1.76,0,0,0-1.41,1c-.93,1.33-3.39,6.3-3.39,9.63,0,2.2.78,3.32,2.31,3.32,2,0,4.37-1.77,7.15-5.41a39.26,39.26,0,0,0,2.53-3.66c0,2-.09,3.26-.2,4.12l-.12,1.35c-3.05,2.15-6.68,6.26-9.54,10.81-3.36,5.51-5.06,10.18-5.06,13.87,0,2.74,1.52,3.32,2.8,3.32,7.91,0,14.19-20.89,14.75-26.89a5.53,5.53,0,0,1,1.54-.57c.43-.09,1-.23,1-.93C337.58,119.26,337.45,118.65,336.27,118.65Zm-16,27.32c-.58,0-.71-.93-.71-1.71,0-3.36,1.66-7.84,4.67-12.63a36.54,36.54,0,0,1,7.56-8.86C330.38,129.76,324.81,146,320.26,146Z"/><path class="b" d="M354.45,111.62c0-.37-.29-.74-.93-.74l-.24,0a2.17,2.17,0,0,1-.43,0,4.22,4.22,0,0,1-3.32-1.78,2.11,2.11,0,0,0-1.88-1,1.21,1.21,0,0,0,.18-.71c0-.88-1-.88-1.35-.88a5.39,5.39,0,0,0-2.41.64C339.29,109.9,338,116,338,118.9c0,2.44,1.11,6.06,4.14,6.06s4.75-2.66,5.83-4.24a14.43,14.43,0,0,0,2.14-8.06,8.19,8.19,0,0,0,1.43.12C352.27,112.78,354.45,112.78,354.45,111.62Zm-11.86,11.29c-1,0-1.28-2.15-1.28-4,0-2.8,1-8,3.78-10a2.1,2.1,0,0,1,1.39-.48h.38a1.49,1.49,0,0,0-.54,1.13,1.35,1.35,0,0,0,.43,1,2.53,2.53,0,0,0,1,.65l.17.07c0,.05.13.27.13,1.42C348.09,117.8,344.56,122.91,342.59,122.91Z"/><path class="b" d="M371.69,117.5c-.54,0-.94.6-1.66,1.69s-1.94,2.91-2.9,2.91c-2,0-2.51-4.53-2.62-5.93l0-.18c-.15-1.5-.37-3.76-2.06-3.76-1.1,0-1.94,1-2.41,1.63s-3,4.14-4.72,6.7l1.59-8a1.13,1.13,0,0,0-1.26-1.17c-.85,0-1.08.93-1.16,1.26-.66,3.09-1.15,5.32-1.52,7a28.17,28.17,0,0,0-.93,5,1.17,1.17,0,0,0,1.21,1.31,1.71,1.71,0,0,0,1.5-1,103.22,103.22,0,0,1,7-8.86c.09.37.19,1,.28,1.46.48,2.74,1.21,6.88,4.13,6.88s4.73-3,5.81-5a2,2,0,0,0,.44-1.16C372.37,117.56,371.85,117.5,371.69,117.5Z"/><path class="d" d="M168.19,70.08a6.1,6.1,0,0,0-1.91-1.23,7.06,7.06,0,0,0-2.55-.45H141a6.6,6.6,0,0,0-2.46.43,6.23,6.23,0,0,0-1.94,1.2,5.35,5.35,0,0,0-1.27,1.81,5.94,5.94,0,0,0-.44,2.31V92.77h7.71V77.33c-.06-1.16.52-1.73,1.73-1.74h4.24V92.77h7.61V75.6h4.08c1.26,0,1.94.63,2,1.81V92.77h7.61V74.15a6,6,0,0,0-.42-2.25A5.71,5.71,0,0,0,168.19,70.08Z"/><path class="d" d="M190.32,68.35H174l.09,6.38,12.72,0a2.45,2.45,0,0,1,2,2.11v.63H178.81q-5.79,0-5.79,6.56v3q0,5.74,5.93,5.75h11.37c4.12,0,6.19-1.92,6.19-5.75V74.09C196.51,70.26,194.44,68.35,190.32,68.35ZM189.2,85c0,1.35-.43,2-1.31,2h-6.95c-.91,0-1.39-.68-1.39-2v-.38c0-1.36.48-2,1.39-2h6.95c.88,0,1.3.72,1.31,2.14Z"/><polygon class="d" points="212.31 82.33 206.76 68.35 198.72 68.35 208.98 92.77 215.66 92.77 225.92 68.35 217.83 68.35 212.31 82.33"/><path class="d" d="M231,66.35h4.32c1.13,0,1.69-.54,1.7-1.61v-2c0-1.07-.56-1.61-1.69-1.61h-4.14c-1.19,0-1.76.54-1.78,1.61v2A1.42,1.42,0,0,0,231,66.35Z"/><rect class="d" x="229.37" y="68.35" width="7.66" height="24.42"/><path class="b" d="M274.82,74.22V87.11c0,3.77-2.07,5.66-6.1,5.66H251.28V61.06l7.6,0V68.4h9.83C272.72,68.39,274.77,70.33,274.82,74.22ZM258.94,75.6v10h6.33a1.66,1.66,0,0,0,1.89-1.86V77.41c0-1.2-.66-1.81-2-1.81Z"/><rect x="306.69" y="61.21" width="7.65" height="31.57"/><path d="M336.1,68.35H324.68q-6.06,0-6.05,5.74V87.22c0,3.69,2.07,5.55,6.2,5.55H336.2c3.95.06,5.91-1.86,5.91-5.7V74.12C342.08,70.31,340.09,68.39,336.1,68.35Zm-1.58,15.27a1.78,1.78,0,0,1-2,2H328c-1.14,0-1.73-.69-1.72-2v-6.1c0-1.23.59-1.84,1.76-1.84h4.35c1.4,0,2.13.58,2.13,1.77Z"/><path d="M295.92,68.35H279.64l.09,6.38,12.72,0a2.44,2.44,0,0,1,2,2.11v.63h-10c-3.85,0-5.78,2.18-5.78,6.57V87c0,3.83,2,5.75,5.92,5.75h11.37c4.13,0,6.21-1.92,6.21-5.75V74.1C302.13,70.26,300.05,68.35,295.92,68.35ZM294.8,85c0,1.35-.43,2-1.3,2h-6.93c-.95,0-1.41-.68-1.41-2v-.38c0-1.36.46-2,1.41-2h6.93c.87,0,1.3.72,1.3,2.14Z"/><path d="M369.91,74.08a5.77,5.77,0,0,0-.44-2.24A4.74,4.74,0,0,0,368.18,70a5.82,5.82,0,0,0-1.93-1.21,7,7,0,0,0-2.49-.42H352.59a6.74,6.74,0,0,0-2.48.43A5.87,5.87,0,0,0,348.19,70a4.69,4.69,0,0,0-1.27,1.81,5.69,5.69,0,0,0-.45,2.3V92.77h7.7V77.33c-.06-1.16.52-1.73,1.74-1.74h4.46a1.75,1.75,0,0,1,2,1.81V92.77H370V74.12Z"/></svg>