<svg xmlns="http://www.w3.org/2000/svg" viewBox="0 0 389.13 149.68"><defs><style>.a{fill:#595553;}.b{fill:#385cad;}.c{fill:#fff;}.d{fill:#1e1e1c;}</style></defs><path class="a" d="M112.11,111A12.45,12.45,0,0,1,99.66,123.5H31.17A12.44,12.44,0,0,1,18.72,111V42.55A12.46,12.46,0,0,1,31.17,30.1H99.66a12.44,12.44,0,0,1,12.45,12.45Z"/><path class="b" d="M88.19,48.3,81.12,61.17,94,54.11a26.72,26.72,0,1,0-5.81-5.81Z"/><path class="c" d="M131.84,10.45a31.22,31.22,0,0,0-48.9,38.06L77.18,59,69.73,72.57,83.3,65.12l10.49-5.76a31.22,31.22,0,0,0,38.05-48.91Zm-3.18,3.19A26.72,26.72,0,0,1,94,54.11L81.12,61.17,88.19,48.3a26.72,26.72,0,0,1,40.47-34.66Z"/><path class="c" d="M105.25,91.52v17.55c0,5.12-2.64,7.7-7.82,7.7H75.13V73.64h9.74v10H97.43Q105.13,83.6,105.25,91.52ZM84.92,93.39V107H93a2.17,2.17,0,0,0,2.43-2.48v-8.6a2.23,2.23,0,0,0-2.55-2.5Z"/><path class="c" d="M25.58,83.6h37a8.22,8.22,0,0,1,3.25.62,7.25,7.25,0,0,1,2.44,1.67,7.5,7.5,0,0,1,1.53,2.49,8.65,8.65,0,0,1,.54,3v25.35H60.56V95.88A2.33,2.33,0,0,0,58,93.39h-5.2v23.36H43.07V93.39H37.63c-1.54,0-2.29.78-2.2,2.36v21h-2a8.24,8.24,0,0,1-3.11-.57,7.24,7.24,0,0,1-2.47-1.61,7.76,7.76,0,0,1-1.64-2.49,8.28,8.28,0,0,1-.59-3.14V83.6Z"/><path class="d" d="M168.89,69.35A6.16,6.16,0,0,0,167,68.13a7.12,7.12,0,0,0-2.52-.44H142a6.64,6.64,0,0,0-2.43.42,6,6,0,0,0-1.91,1.2,5,5,0,0,0-1.26,1.78,5.79,5.79,0,0,0-.43,2.28V91.76h7.61V76.51c-.06-1.15.51-1.71,1.71-1.72h4.18v17H157v-17h4c1.25,0,1.92.62,2,1.78V91.76h7.51V73.37a5.63,5.63,0,0,0-1.58-4Z"/><path class="d" d="M190.74,67.64H174.65l.09,6.3,12.56,0a2.41,2.41,0,0,1,2,2.09v.61h-9.91q-5.73,0-5.72,6.48v2.92c0,3.78,2,5.68,5.85,5.68h11.23c4.07,0,6.11-1.9,6.11-5.68V73.31Q196.85,67.64,190.74,67.64Zm-1.11,16.45q0,2-1.29,2h-6.86c-.9,0-1.37-.67-1.37-2v-.37c0-1.35.47-2,1.37-2h6.86c.86,0,1.28.71,1.29,2.11Z"/><polygon class="d" points="212.45 81.45 206.97 67.64 199.03 67.64 209.16 91.76 215.75 91.76 225.89 67.64 217.9 67.64 212.45 81.45"/><rect class="d" x="229.3" y="67.64" width="7.57" height="24.12"/><path class="d" d="M230.87,65.67h4.28a1.45,1.45,0,0,0,1.67-1.59V62.13c0-1.05-.55-1.59-1.66-1.59h-4.1c-1.17,0-1.74.54-1.75,1.59v1.95A1.4,1.4,0,0,0,230.87,65.67Z"/><path class="b" d="M274.17,73.44V86.16c0,3.73-2,5.6-6,5.6H250.93V60.45h7.5v7.23h9.71C272.1,67.68,274.12,69.59,274.17,73.44ZM258.49,74.8l0,9.87h6.24a1.64,1.64,0,0,0,1.86-1.84V76.58c0-1.18-.64-1.78-1.95-1.78Z"/><path class="b" d="M306.5,124.13l-.2-.11s-1.71-1.32-1.71-5.4a19.2,19.2,0,0,1,.32-3.49,3.14,3.14,0,0,1,.33-.8,1.81,1.81,0,0,0,.25-.73,1,1,0,0,0-1-.91c-1.32,0-1.66,1.42-1.87,2.26a4.38,4.38,0,0,1-.11.43c-.32.91-4.05,5.12-5.5,6.43a1.84,1.84,0,0,1-1,.58h-.08a1.94,1.94,0,0,1-.05-.55,7.68,7.68,0,0,1,.09-.93l0-.28c.35-1.36,3.13-7.39,6.25-9.09a1.48,1.48,0,0,1,.47-.15,1.34,1.34,0,0,1,.33.27,1.65,1.65,0,0,0,1.13.58,1,1,0,0,0,1-1,2.13,2.13,0,0,0-2.1-1.9c-4.71,0-10.09,7.14-10.09,13.41,0,.75.59,2.23,1.95,2.23a5,5,0,0,0,3.36-1.45,43.14,43.14,0,0,0,3.94-4.41c.2,3.88,2,5.66,2.79,6.06a2.51,2.51,0,0,0,1.37.37c.61,0,.68-.37.68-.53A.84.84,0,0,0,306.5,124.13Z"/><path class="b" d="M321.72,108.06a1.16,1.16,0,0,0-1.29-1l-.83.06c-.86.06-2.32.17-3.46.21.37-.78.69-1.52,1-2.22a16.44,16.44,0,0,0,1.32-3.62c0-.9-.43-1.81-1.38-1.81-.57,0-1,.59-1.3,1.13-.52,1.09-1.88,4.14-2.69,6.47-1.35-.08-2.21-.12-2.69-.12-1.06,0-3.85.69-3.85,2.24a.9.9,0,0,0,.87.91,1.05,1.05,0,0,0,.84-.45c.23-.27.54-.63,2.05-.63.85,0,1.74.06,2.3.11-.1.32-.22.68-.33,1.06-1,3.33-2.79,8.91-2.79,11.78,0,1,.37,5.83,2.14,5.83a.69.69,0,0,0,.77-.67,1.16,1.16,0,0,0-.26-.75,5.65,5.65,0,0,1-.44-2.38c0-2.45,1-6,1.88-9.19l0-.13c.53-1.72,1.11-3.55,1.78-5.4l1.13-.06C320.05,109.27,321.72,109.09,321.72,108.06Z"/><path class="b" d="M327.29,105.7a2.24,2.24,0,0,0,2.1-2.2,1.47,1.47,0,0,0-1.48-1.62,2.26,2.26,0,0,0-2.1,2.24A1.49,1.49,0,0,0,327.29,105.7Z"/><path class="b" d="M322.23,105.7a2.24,2.24,0,0,0,2.1-2.2,1.47,1.47,0,0,0-1.48-1.62,2.26,2.26,0,0,0-2.1,2.24A1.48,1.48,0,0,0,322.23,105.7Z"/><path class="b" d="M370.23,120.71a.8.8,0,0,0-.59-.21,2,2,0,0,0-1,.36,4,4,0,0,0-.56.32,9,9,0,0,1-4.19,1.64c-1.36,0-2.92-.33-2.92-2.83a9.71,9.71,0,0,1,.27-2.38c4.27-.46,8.2-4.56,8.2-8.65a2.21,2.21,0,0,0-2.28-2.38,4.88,4.88,0,0,0-2.87,1.15,15.84,15.84,0,0,0-6.22,12,1.46,1.46,0,0,0-1.08-.33,4.85,4.85,0,0,0-1.09.23,47,47,0,0,0,.3-5.42c0-2.48-.15-3.65-1.58-3.65-1.65,0-2,1-2.09,1.57-.12,1.22-4.72,7.17-5.68,8.13-1.11,1.11-1.87,1.61-2.45,1.61-.25,0-.5,0-.5-1,.13-2.54,2.65-7.61,3.22-8.59a1.15,1.15,0,0,0,.28-.76c0-.66-.68-1.06-1.34-1.06a1.71,1.71,0,0,0-1.39,1c-.93,1.32-3.36,6.23-3.36,9.51,0,2.18.77,3.28,2.29,3.28,2,0,4.31-1.74,7.06-5.34a43.26,43.26,0,0,0,2.5-3.61c-.05,2-.1,3.22-.2,4.07l-.12,1.33c-3,2.12-6.6,6.18-9.42,10.67-3.32,5.45-5,10.05-5,13.69,0,2.72,1.51,3.29,2.77,3.29,7.8,0,14-20.63,14.56-26.56a5.17,5.17,0,0,1,1.52-.55,1.47,1.47,0,0,0,.84-.4c.3,2.6,1.94,4,4.83,4a8.93,8.93,0,0,0,2.36-.25,10.51,10.51,0,0,0,1.25-.45,17.49,17.49,0,0,0,3.23-1.91,1.8,1.8,0,0,0,.59-.75l0-.18A.77.77,0,0,0,370.23,120.71Zm-3.62-11.3a1.81,1.81,0,0,1,.61-.19h.07s.06.07.06.36a1.87,1.87,0,0,1,0,.48,7.54,7.54,0,0,1-5.49,5.51A16.37,16.37,0,0,1,366.61,109.41Zm-25.4,37c-.58,0-.7-.92-.7-1.69,0-3.31,1.64-7.74,4.61-12.47a36.19,36.19,0,0,1,7.46-8.75C351.2,130.43,345.7,146.43,341.21,146.43Z"/><path class="b" d="M340.28,125.53c.63-.49.83-1.37.28-1.65s-1.54.4-1.93.59-1.16.89-2.5-1c-1.29-2.16-1.57-6.15-1.59-7.24s.11-2.48.11-2.48a29.48,29.48,0,0,0,12.25-11.52,15.57,15.57,0,0,0,2.17-7.37,2.18,2.18,0,0,0-2.38-2.21c-3.59,0-7.45,4-9.86,7.75-2.63,4.16-4.57,9.11-4.86,12.38h-.08a2.24,2.24,0,0,1-.43,0,4.16,4.16,0,0,1-3.28-1.76,2.07,2.07,0,0,0-1.85-1,1.29,1.29,0,0,0,.18-.71c0-.87-1-.87-1.35-.87a5.16,5.16,0,0,0-2.36.64c-4.73,2.65-6,8.71-6,11.54,0,2.41,1.09,6,4.09,6,2.69,0,4.38-2.16,5.75-4.19a14.2,14.2,0,0,0,2.11-8,8.27,8.27,0,0,0,1.23.11h0l.34,0,.14,0h.1a6.28,6.28,0,0,0,1.24-.14c0,.1-.09,1.2-.09,1.87a17.52,17.52,0,0,0,1.38,6.41,8.38,8.38,0,0,0,2,2.67,4.35,4.35,0,0,0,2.84,1,5.21,5.21,0,0,0,.68-.11A5,5,0,0,0,340.28,125.53Zm-1.09-24c2-3.51,5.39-7.43,7.12-7.43.19,0,.6,0,.6,1.07,0,4.7-6.5,13.47-11.86,16.31A47.5,47.5,0,0,1,339.19,101.54Zm-17.86,23.1c-1,0-1.26-2.12-1.26-3.91,0-2.77,1-7.89,3.73-9.83a2.08,2.08,0,0,1,1.36-.47h.38a1.5,1.5,0,0,0-.53,1.12,1.34,1.34,0,0,0,.42,1,2.58,2.58,0,0,0,1,.65.49.49,0,0,1,.16.07s.14.27.14,1.4C326.76,119.6,323.28,124.64,321.33,124.64Z"/><rect x="305.85" y="60.59" width="7.55" height="31.17"/><path d="M334.88,67.64H323.61c-4,0-6,1.89-6,5.67v13c0,3.65,2,5.49,6.12,5.49H335c3.9,0,5.85-1.84,5.85-5.64V73.34C340.79,69.58,338.83,67.68,334.88,67.64Zm-1.56,15.08a1.76,1.76,0,0,1-2,2H326.9c-1.13,0-1.71-.69-1.7-2v-6c0-1.22.59-1.82,1.74-1.82h4.29c1.39,0,2.1.57,2.1,1.75Z"/><path d="M295.21,67.64H279.13l.1,6.3,12.55,0a2.4,2.4,0,0,1,2,2.09v.61h-9.92q-5.72,0-5.71,6.5v2.9c0,3.78,2,5.68,5.85,5.68h11.22c4.08,0,6.13-1.9,6.13-5.68V73.32C301.34,69.53,299.29,67.64,295.21,67.64Zm-1.1,16.45c0,1.34-.42,2-1.28,2H286c-.94,0-1.4-.67-1.4-2v-.37c0-1.35.46-2,1.4-2h6.85c.86,0,1.28.71,1.28,2.11Z"/><path d="M368.28,73.3a5.62,5.62,0,0,0-.45-2.21,4.62,4.62,0,0,0-1.27-1.79,5.64,5.64,0,0,0-1.9-1.19,6.88,6.88,0,0,0-2.46-.42h-11a6.78,6.78,0,0,0-2.45.41,5.71,5.71,0,0,0-1.89,1.2,4.57,4.57,0,0,0-1.26,1.78,5.8,5.8,0,0,0-.45,2.28V91.76h7.61V76.51c-.06-1.15.51-1.71,1.72-1.72h4.4a1.73,1.73,0,0,1,2,1.79V91.76h7.51V73.34Z"/></svg>