<svg xmlns="http://www.w3.org/2000/svg" viewBox="0 0 389.13 149.68"><defs><style>.a{fill:#595553;}.b{fill:#ee720c;}.c{fill:#fff;}.d{fill:#1e1e1c;}</style></defs><path class="a" d="M108.54,117.77a13.29,13.29,0,0,1-13.3,13.29H22.12a13.31,13.31,0,0,1-13.3-13.3V44.64a13.29,13.29,0,0,1,13.29-13.3H95.25a13.29,13.29,0,0,1,13.29,13.29Z"/><path class="b" d="M83,50.77,75.45,64.52,89.21,57A28.51,28.51,0,1,0,83,50.77Z"/><path class="c" d="M129.61,10.36A33.34,33.34,0,0,0,77.39,51L71.24,62.19l-7.95,14.5,14.49-8L89,62.59a33.34,33.34,0,0,0,40.63-52.23Zm-3.4,3.4A28.53,28.53,0,0,1,89.21,57L75.45,64.52,83,50.77a28.53,28.53,0,0,1,43.21-37Z"/><path class="c" d="M101.21,96.92v18.73q-.06,8.22-8.35,8.23H69.05v-46h10.4V88.46H92.87C98.34,88.46,101.13,91.28,101.21,96.92Zm-21.7,2v14.51h8.64a2.32,2.32,0,0,0,2.6-2.65v-9.19c0-1.78-.91-2.66-2.72-2.66Z"/><path class="c" d="M16.15,88.46H55.62a8.76,8.76,0,0,1,3.47.67,7.7,7.7,0,0,1,2.6,1.78,7.91,7.91,0,0,1,1.63,2.66,9.06,9.06,0,0,1,.57,3.24v27.07H53.49v-22.3a2.5,2.5,0,0,0-2.71-2.67H45.22v25H34.82v-25H29c-1.65,0-2.45.84-2.35,2.53v22.43H24.5a9.12,9.12,0,0,1-3.32-.6,8,8,0,0,1-2.64-1.73,8.15,8.15,0,0,1-1.75-2.66,9,9,0,0,1-.63-3.35V88.46Z"/><path class="d" d="M167.44,73.25a6.34,6.34,0,0,0-2-1.3,7.41,7.41,0,0,0-2.69-.47h-24a7.09,7.09,0,0,0-2.59.45,6.13,6.13,0,0,0-2,1.27,5.25,5.25,0,0,0-1.34,1.91,6.12,6.12,0,0,0-.46,2.43V97.17h8.12V80.89c-.06-1.23.55-1.82,1.83-1.83h4.46V97.17h8V79.07H159c1.34,0,2.05.66,2.1,1.9v16.2h8V77.54a6.39,6.39,0,0,0-.44-2.37A6,6,0,0,0,167.44,73.25Z"/><path class="d" d="M190.78,71.42H173.59l.1,6.73,13.41,0a2.59,2.59,0,0,1,2.13,2.23v.66H178.64q-6.1,0-6.1,6.92v3.11q0,6.06,6.24,6.06h12q6.51,0,6.52-6.06V77.48Q197.3,71.42,190.78,71.42ZM189.59,89c0,1.43-.46,2.15-1.38,2.15h-7.32c-1,0-1.47-.72-1.47-2.15v-.39c0-1.44.5-2.16,1.47-2.16h7.32c.92,0,1.37.76,1.38,2.26Z"/><polygon class="d" points="213.95 86.17 208.1 71.42 199.62 71.42 210.44 97.17 217.48 97.17 228.3 71.42 219.78 71.42 213.95 86.17"/><path class="d" d="M233.62,69.32h4.57c1.18,0,1.78-.57,1.78-1.7V65.54c0-1.12-.6-1.7-1.78-1.7h-4.38c-1.24,0-1.85.58-1.87,1.7v2.08A1.5,1.5,0,0,0,233.62,69.32Z"/><rect class="d" x="231.94" y="71.42" width="8.08" height="25.75"/><path class="b" d="M279.86,77.62V91.2q0,6-6.44,6H255V63.74l8,0v7.72h10.36C277.64,71.47,279.8,73.51,279.86,77.62Zm-16.75,1.45,0,10.53h6.66a1.75,1.75,0,0,0,2-2V81c0-1.26-.7-1.9-2.09-1.9Z"/><rect x="313.68" y="63.89" width="8.06" height="33.28"/><path d="M344.68,71.42h-12q-6.39,0-6.38,6.06V91.32c0,3.89,2.17,5.85,6.53,5.85h12c4.17.06,6.24-2,6.24-6V77.51C351,73.49,348.89,71.47,344.68,71.42ZM343,87.53a1.87,1.87,0,0,1-2.14,2.07h-4.72c-1.2,0-1.82-.73-1.81-2.16V81c0-1.3.62-1.94,1.85-1.94h4.59c1.48,0,2.24.61,2.24,1.87Z"/><path d="M302.32,71.42H285.15l.1,6.73,13.41,0a2.58,2.58,0,0,1,2.12,2.23v.66H290.19c-4.06,0-6.1,2.3-6.1,6.93v3.1c0,4,2.11,6.06,6.24,6.06h12c4.35,0,6.55-2,6.55-6.06V77.49C308.87,73.44,306.67,71.42,302.32,71.42ZM301.14,89c0,1.43-.45,2.15-1.37,2.15h-7.31c-1,0-1.49-.72-1.49-2.15v-.39c0-1.44.49-2.16,1.49-2.16h7.31c.92,0,1.37.76,1.37,2.26Z"/><path d="M380.26,77.47a6.22,6.22,0,0,0-.47-2.37,5,5,0,0,0-1.35-1.9,6.32,6.32,0,0,0-2-1.28,7.28,7.28,0,0,0-2.62-.44H362a7.18,7.18,0,0,0-2.6.45,6,6,0,0,0-2,1.27A5,5,0,0,0,356,75.11a6.12,6.12,0,0,0-.48,2.43V97.17h8.12V80.89c-.06-1.22.55-1.82,1.84-1.83h4.7a1.84,1.84,0,0,1,2.09,1.9v16.2h8V77.51Z"/></svg>