<svg xmlns="http://www.w3.org/2000/svg" viewBox="0 0 389.13 149.68"><defs><style>.a{fill:#595553;}.b{fill:#652682;}.c{fill:#fff;}.d{fill:#1e1e1c;}</style></defs><path class="a" d="M107.69,117.77A13.29,13.29,0,0,1,94.4,131.06H21.27A13.31,13.31,0,0,1,8,117.76V44.64a13.3,13.3,0,0,1,13.3-13.3H94.4a13.29,13.29,0,0,1,13.29,13.29Z"/><path class="b" d="M82.15,50.77,74.61,64.52,88.36,57a28.5,28.5,0,1,0-6.21-6.2Z"/><path class="c" d="M128.76,10.36A33.35,33.35,0,0,0,76.54,51L70.4,62.19l-8,14.5,14.49-8,11.2-6.14a33.34,33.34,0,0,0,40.63-52.23Zm-3.4,3.41a28.52,28.52,0,0,1-37,43.2L74.61,64.52l7.54-13.75a28.53,28.53,0,0,1,43.21-37Z"/><path class="c" d="M100.36,96.92v18.73q-.06,8.22-8.35,8.23H68.2v-46H78.6V88.46H92C97.49,88.46,100.28,91.28,100.36,96.92Zm-21.7,2v14.51h8.65c1.72,0,2.59-.89,2.59-2.65v-9.19c0-1.78-.91-2.66-2.72-2.66Z"/><path class="c" d="M15.3,88.46H54.77a8.76,8.76,0,0,1,3.47.67,7.7,7.7,0,0,1,2.6,1.78,7.91,7.91,0,0,1,1.63,2.66,9.07,9.07,0,0,1,.58,3.24v27.07H52.65v-22.3a2.5,2.5,0,0,0-2.72-2.67H44.37v25H34v-25H28.17c-1.65,0-2.45.84-2.35,2.53v22.43H23.65a9.12,9.12,0,0,1-3.32-.6,7.72,7.72,0,0,1-2.63-1.73,8.29,8.29,0,0,1-1.76-2.66,9,9,0,0,1-.63-3.35V88.46Z"/><path class="b" d="M312.25,108.15c0-1.46-.75-1.67-1.19-1.67-1.18,0-2.17,2-2.16,3,0,1.15.57,1.52.91,1.64l.18,0C310.7,111.12,311.94,110.73,312.25,108.15Z"/><path class="b" d="M298.77,110.54c-3.18,0-6.16,2.65-6.13,5.39,0,2.33,1.71,3.81,3.35,5.23s2.94,2.58,3,4.41c0,1.53-1.57,1.87-2.9,1.88-.73,0-3.83-.61-3.84-1.92a.82.82,0,0,0-.83-.91,1.14,1.14,0,0,0-1.22,1.24c0,2.55,3.86,3.61,5.81,3.59,2.62,0,6.26-1.91,6.24-4.92,0-2.12-1.87-3.91-3.65-5.65-1.49-1.46-2.91-2.83-2.92-4.09a2,2,0,0,1,2.19-2,4.45,4.45,0,0,1,2.37,1,2.93,2.93,0,0,0,1.49.7c.35,0,1.17-.14,1.26-1.34C302.94,111.71,300.37,110.53,298.77,110.54Z"/><path class="b" d="M308.06,114.75c-1.11,0-1.61,1.12-1.78,1.48a25.16,25.16,0,0,0-1.74,7.87c0,1.65.06,6,3.06,6A1.26,1.26,0,0,0,309,129a.91.91,0,0,0-.75-.88c-.33-.11-.88-.28-.9-2.64a26,26,0,0,1,1.86-8.69,1.88,1.88,0,0,0,.32-.93C309.49,115.1,308.77,114.74,308.06,114.75Z"/><path class="b" d="M342.25,124.71a2.18,2.18,0,0,0-1,.4,3.53,3.53,0,0,0-.6.35,9.51,9.51,0,0,1-4.45,1.79c-1.45,0-3.12-.31-3.15-3a10.06,10.06,0,0,1,.27-2.54c4.2-.5,8.71-4.47,8.66-9.32a2.36,2.36,0,0,0-2.46-2.52,5.2,5.2,0,0,0-3.05,1.26,17.78,17.78,0,0,0-6.32,10.46,5.89,5.89,0,0,0-1.29,1.66c-.8,1.23-2,3.09-3,3.1-2.08,0-2.69-4.75-2.82-6.22l0-.2c-.17-1.58-.43-4-2.21-3.94-1.17,0-2,1.12-2.52,1.74s-3.18,4.48-4.92,7.12l1.6-8.48a1.19,1.19,0,0,0-1.34-1.22c-.89,0-1.13,1-1.21,1.33-.66,3.27-1.16,5.63-1.53,7.37a30.37,30.37,0,0,0-.93,5.3,1.24,1.24,0,0,0,1.29,1.37,1.82,1.82,0,0,0,1.58-1,106.74,106.74,0,0,1,7.25-9.41c.11.38.22,1,.32,1.53.53,2.89,1.34,7.25,4.43,7.22,2.47,0,4.08-2,5.2-3.79.29,2.89,2.06,4.4,5.21,4.37a9.14,9.14,0,0,0,2.52-.29,10.3,10.3,0,0,0,1.32-.5,17.3,17.3,0,0,0,3.43-2.07,1.91,1.91,0,0,0,.62-.8l0-.2a.78.78,0,0,0-.2-.61A.85.85,0,0,0,342.25,124.71Zm-3.35-11.8a2.49,2.49,0,0,1,.66-.22h.07a.72.72,0,0,1,.06.38,1.69,1.69,0,0,1,0,.51c-.44,2.49-3,5.47-5.81,5.94A17.52,17.52,0,0,1,338.9,112.91Z"/><path class="b" d="M380.51,127.17l-.22-.11s-1.84-1.4-1.88-5.75a20.86,20.86,0,0,1,.31-3.73,4,4,0,0,1,.34-.86,1.88,1.88,0,0,0,.26-.78,1.06,1.06,0,0,0-1.09-1c-1.41,0-1.76,1.53-2,2.44,0,.17-.07.34-.11.46-.33,1-4.27,5.51-5.8,6.91a2,2,0,0,1-1.06.64s-.07,0-.08,0a2,2,0,0,1-.06-.59,7.27,7.27,0,0,1,.09-1l0-.28c.36-1.45,3.26-7.93,6.58-9.77a1.85,1.85,0,0,1,.5-.17,1.47,1.47,0,0,1,.36.28,1.76,1.76,0,0,0,1.21.62,1.09,1.09,0,0,0,1.07-1.09,2.27,2.27,0,0,0-2.26-2c-3.72,0-7.79,4.25-9.63,9.15a2.65,2.65,0,0,0-.65,1,14.41,14.41,0,0,1-2.29,2.86c-.54.55-.78.56-.79.56s-.33-.53-.41-.78a27.65,27.65,0,0,1-.55-5.82c0-.43,0-1.32-.65-1.57a1.72,1.72,0,0,0-.74-.2,1.84,1.84,0,0,0-1.26.56l-.2.16-.33.24,0,0a37.31,37.31,0,0,0-4.31,4.9c0-.16.05-.33.08-.5.21-1.64.38-2.79.51-3.66a17,17,0,0,0,.29-2.73,1.06,1.06,0,0,0-1.13-1.17h0a2.83,2.83,0,0,0-1.8,1.31c-.4.46-1.42,1.82-4.27,5.68l-1.54,2.1c.16-.67.32-1.37.48-2.08l.4-1.75.68-2.81c.38-1.53.74-3,1-4.11a1.24,1.24,0,0,0,.07-.5,1.14,1.14,0,0,0-1.09-1.16,1.37,1.37,0,0,0-1.44,1.07c-.4,1.25-.93,3.37-1.67,6.68l-.43,1.92c-.63,2.76-1.28,5.62-1.8,7.61a5.66,5.66,0,0,0-.15,1.13c0,.42.19,1.13,1.39,1.11a1.75,1.75,0,0,0,1.59-1.26,2.53,2.53,0,0,0,.12-.57,1.81,1.81,0,0,1,.24-.79c.11-.2,1-1.44,1.88-2.65.56-.78,1.2-1.66,1.81-2.52,1.13-1.51,1.91-2.55,2.78-3.67-.11,1.09-.33,2.52-.53,3.82a35.11,35.11,0,0,0-.51,4.17,1.17,1.17,0,0,0,1.14,1.32,1.32,1.32,0,0,0,1.27-.82c.54-.94,1.9-3.13,3.34-5.12a22.08,22.08,0,0,1,1.84-2.41c.08-.09.16-.16.22-.22,0,2.32.14,5,.66,6.11a2.42,2.42,0,0,0,2.26,1.61c1.24,0,2.5-1.07,3.52-2.27,0,.17,0,.33,0,.5,0,.8.66,2.38,2.11,2.37a5.4,5.4,0,0,0,3.57-1.59,45.55,45.55,0,0,0,4.16-4.75c.26,4.13,2.19,6,3,6.44a2.69,2.69,0,0,0,1.47.38c.65,0,.72-.4.72-.57A.91.91,0,0,0,380.51,127.17Z"/><path class="d" d="M166.7,73.25a6.34,6.34,0,0,0-2-1.3,7.37,7.37,0,0,0-2.69-.47H138a7,7,0,0,0-2.58.45,6.28,6.28,0,0,0-2.05,1.27A5.38,5.38,0,0,0,132,75.11a6.12,6.12,0,0,0-.46,2.43V97.17h8.12V80.89c-.07-1.23.54-1.82,1.82-1.83H146V97.17h8V79.07h4.3a1.84,1.84,0,0,1,2.09,1.9v16.2h8V77.54a6.39,6.39,0,0,0-.44-2.37A6,6,0,0,0,166.7,73.25Z"/><path class="d" d="M190,71.42H172.86l.09,6.73,13.42,0a2.58,2.58,0,0,1,2.12,2.23v.66H177.9q-6.1,0-6.1,6.92v3.11c0,4,2.11,6.06,6.24,6.06h12q6.51,0,6.52-6.06V77.48Q196.56,71.42,190,71.42ZM188.86,89c0,1.43-.46,2.15-1.38,2.15h-7.33c-1,0-1.47-.72-1.47-2.15v-.39c0-1.44.51-2.16,1.47-2.16h7.33c.92,0,1.36.76,1.38,2.26Z"/><polygon class="d" points="213.22 86.17 207.37 71.42 198.89 71.42 209.71 97.17 216.75 97.17 227.56 71.42 219.04 71.42 213.22 86.17"/><rect class="d" x="231.2" y="71.42" width="8.08" height="25.75"/><path class="d" d="M232.89,69.32h4.56c1.19,0,1.78-.57,1.78-1.7V65.54c0-1.12-.59-1.69-1.78-1.69h-4.37c-1.25,0-1.86.57-1.88,1.69v2.08A1.51,1.51,0,0,0,232.89,69.32Z"/><path class="b" d="M279.12,77.62V91.2c0,4-2.18,6-6.44,6H254.3V63.74l8,0v7.72h10.36C276.91,71.47,279.07,73.51,279.12,77.62Zm-16.74,1.45V89.6h6.67a1.75,1.75,0,0,0,2-2V81c0-1.26-.69-1.9-2.08-1.9Z"/><rect x="312.94" y="63.89" width="8.06" height="33.28"/><path d="M343.94,71.42h-12q-6.39,0-6.38,6.06V91.32c0,3.89,2.17,5.85,6.53,5.85h12c4.16.06,6.23-2,6.23-6V77.51C350.25,73.49,348.15,71.47,343.94,71.42Zm-1.67,16.11a1.87,1.87,0,0,1-2.14,2.07h-4.72c-1.2,0-1.82-.73-1.81-2.16V81c0-1.3.63-1.94,1.86-1.94H340c1.48,0,2.24.61,2.24,1.87Z"/><path d="M301.58,71.42H284.42l.1,6.73,13.4,0A2.56,2.56,0,0,1,300,80.42v.66H289.45c-4.06,0-6.09,2.3-6.09,6.93v3.1c0,4,2.1,6.06,6.24,6.06h12q6.54,0,6.55-6.06V77.49Q308.13,71.41,301.58,71.42ZM300.4,89c0,1.43-.45,2.15-1.36,2.15h-7.32c-1,0-1.48-.72-1.48-2.15v-.39c0-1.44.48-2.16,1.48-2.16H299c.91,0,1.36.76,1.36,2.26Z"/><path d="M379.55,77.47a6.22,6.22,0,0,0-.47-2.37,5,5,0,0,0-1.36-1.9,6.17,6.17,0,0,0-2-1.28,7.3,7.3,0,0,0-2.63-.44H361.28a7.2,7.2,0,0,0-2.61.45,6,6,0,0,0-2,1.27,5,5,0,0,0-1.35,1.91,6.3,6.3,0,0,0-.47,2.43V97.17H363V80.89c-.06-1.22.55-1.82,1.83-1.83h4.71a1.84,1.84,0,0,1,2.09,1.9v16.2h8V77.51Z"/></svg>