<svg xmlns="http://www.w3.org/2000/svg" viewBox="0 0 389.13 149.68"><defs><style>.a{fill:#595553;}.b{fill:#e20e18;}.c{fill:#fff;}.d{fill:#1e1e1c;}</style></defs><path class="a" d="M110.68,112.92A12.71,12.71,0,0,1,98,125.64H28a12.73,12.73,0,0,1-12.73-12.72V43A12.72,12.72,0,0,1,28,30.23H98A12.71,12.71,0,0,1,110.68,43Z"/><path class="b" d="M86.25,48.82,79,62l13.15-7.22a27.32,27.32,0,1,0-5.93-5.94Z"/><path class="c" d="M130.84,10.16A31.9,31.9,0,0,0,80.88,49L75,59.75,67.38,73.62,81.25,66,92,60.13a31.9,31.9,0,0,0,38.88-50Zm-3.25,3.25A27.3,27.3,0,0,1,92.18,54.76L79,62l7.22-13.16a27.3,27.3,0,0,1,41.34-35.41Z"/><path class="c" d="M103.67,93V110.9c0,5.24-2.71,7.88-8,7.88H72.9V74.71h9.95V84.88H95.68Q103.54,84.88,103.67,93ZM82.9,94.88v13.89h8.27a2.21,2.21,0,0,0,2.48-2.53V97.44a2.28,2.28,0,0,0-2.6-2.55Z"/><path class="c" d="M22.28,84.88H60a8.36,8.36,0,0,1,3.32.64,7.45,7.45,0,0,1,2.49,1.71,7.56,7.56,0,0,1,1.57,2.54,9,9,0,0,1,.54,3.1v25.91H58V97.44a2.38,2.38,0,0,0-2.59-2.55H50.1v23.87h-10V94.89H34.59a2,2,0,0,0-2.24,2.41v21.46H30.27a8.61,8.61,0,0,1-3.18-.57,7.68,7.68,0,0,1-2.52-1.66A7.54,7.54,0,0,1,22.9,114a8.46,8.46,0,0,1-.61-3.21V84.88Z"/><path class="b" d="M297.52,107.68a1.18,1.18,0,0,0-1.32-1l-.84.06c-.88.07-2.37.18-3.53.22.37-.81.71-1.56,1-2.27a16.64,16.64,0,0,0,1.36-3.7c0-.92-.44-1.85-1.42-1.85-.57,0-1,.6-1.32,1.15-.53,1.11-1.92,4.22-2.75,6.61-1.37-.08-2.25-.12-2.75-.12-1.08,0-3.93.7-3.93,2.29a.91.91,0,0,0,.89.93,1.08,1.08,0,0,0,.85-.46c.24-.28.56-.65,2.1-.65.87,0,1.78.07,2.34.12-.1.33-.21.69-.34,1.09-1.06,3.4-2.84,9.1-2.84,12,0,1,.38,6,2.19,6a.71.71,0,0,0,.79-.7,1.22,1.22,0,0,0-.27-.76,5.69,5.69,0,0,1-.46-2.43c0-2.51,1-6.18,1.94-9.41l0-.11c.52-1.66,1.13-3.6,1.82-5.52l1.16-.06C295.82,108.92,297.52,108.73,297.52,107.68Z"/><path class="b" d="M298,124.56a.87.87,0,0,0-.71-.86c-.31-.1-.83-.28-.83-2.53a25.07,25.07,0,0,1,1.86-8.3,1.7,1.7,0,0,0,.31-.88c0-.68-.69-1-1.37-1-1,0-1.54,1.05-1.71,1.4a23.84,23.84,0,0,0-1.73,7.51c0,1.58,0,5.77,2.86,5.77A1.21,1.21,0,0,0,298,124.56Z"/><path class="b" d="M299,107.47l.18,0c.68,0,1.87-.36,2.19-2.82,0-1.4-.71-1.61-1.13-1.61-1.12,0-2.09,1.89-2.09,2.82C298.14,107,298.67,107.35,299,107.47Z"/><path class="b" d="M329.86,124.09l-.21-.1s-1.75-1.36-1.75-5.52a20.1,20.1,0,0,1,.33-3.57,3.91,3.91,0,0,1,.33-.82,1.69,1.69,0,0,0,.26-.74,1,1,0,0,0-1-.93c-1.35,0-1.7,1.45-1.91,2.31,0,.17-.07.33-.11.44-.32.93-4.13,5.23-5.62,6.56a1.8,1.8,0,0,1-1,.6h-.07a1.83,1.83,0,0,1-.06-.57,8.71,8.71,0,0,1,.1-1l0-.26c.36-1.39,3.2-7.56,6.39-9.29a.49.49,0,0,1,.82.12,1.72,1.72,0,0,0,1.16.6,1.05,1.05,0,0,0,1-1,2.16,2.16,0,0,0-2.14-1.94c-4.1,0-8.66,5.26-9.95,10.77a1.31,1.31,0,0,0-1.17-.43,4.87,4.87,0,0,0-1.11.23,49.09,49.09,0,0,0,.3-5.53c0-2.54-.16-3.74-1.61-3.74-1.69,0-2.06,1-2.14,1.61-.12,1.25-4.83,7.33-5.8,8.3-1.14,1.14-1.91,1.65-2.5,1.65-.26,0-.52,0-.52-1,.14-2.58,2.71-7.76,3.29-8.76a1.26,1.26,0,0,0,.29-.79c0-.67-.7-1.08-1.37-1.08a1.75,1.75,0,0,0-1.42,1c-.95,1.34-3.43,6.36-3.43,9.71,0,2.23.78,3.36,2.34,3.36,2,0,4.4-1.79,7.21-5.47a41.76,41.76,0,0,0,2.55-3.68c0,2-.1,3.29-.2,4.15l-.13,1.37c-3.07,2.16-6.74,6.31-9.62,10.89-3.38,5.57-5.1,10.28-5.1,14,0,2.76,1.53,3.35,2.82,3.35,8,0,14.31-21.08,14.88-27.13a5.5,5.5,0,0,1,1.56-.57,2.08,2.08,0,0,0,.66-.23,11.59,11.59,0,0,0-.15,1.75c0,.78.61,2.29,2,2.29a5.21,5.21,0,0,0,3.43-1.48,45.12,45.12,0,0,0,4-4.51c.21,4,2,5.78,2.85,6.19a2.65,2.65,0,0,0,1.4.38c.63,0,.69-.38.69-.55A.87.87,0,0,0,329.86,124.09Zm-30.74,22.79c-.59,0-.71-.94-.71-1.72,0-3.39,1.67-7.92,4.71-12.74a36.8,36.8,0,0,1,7.62-8.94C309.33,130.53,303.71,146.88,299.12,146.88Z"/><path class="b" d="M359.5,109.38a.78.78,0,0,0-.63-.84,1.37,1.37,0,0,1-.37-.16,3.54,3.54,0,0,1-.86-.94,2.5,2.5,0,0,0-2.12-1.37c-2.61,0-5.22,3.8-7.31,8,.18-1,.32-1.83.44-2.51s.19-1,.26-1.42l.25-1.58c0-1.49-.94-1.61-1.23-1.61a1.88,1.88,0,0,0-1,.37,4.09,4.09,0,0,1-1.59.62.92.92,0,0,0,0-.25,1.18,1.18,0,0,0-1.32-1l-.84.06c-.88.07-2.38.18-3.54.22.38-.81.72-1.56,1-2.27a16.64,16.64,0,0,0,1.36-3.7c0-.92-.44-1.85-1.42-1.85-.58,0-1,.6-1.32,1.15-.54,1.11-1.92,4.22-2.75,6.61-1.38-.08-2.25-.12-2.75-.12-1.08,0-3.93.7-3.93,2.29a.91.91,0,0,0,.88.93,1.08,1.08,0,0,0,.86-.46c.23-.28.56-.65,2.09-.65.88,0,1.78.07,2.35.12-.1.33-.21.69-.34,1.09-1.06,3.4-2.84,9.1-2.84,12,0,1,.38,6,2.19,6a.71.71,0,0,0,.79-.7,1.17,1.17,0,0,0-.28-.76,5.86,5.86,0,0,1-.45-2.43c0-2.51,1-6.18,1.93-9.41l0-.11c.51-1.66,1.12-3.6,1.82-5.52l1.16-.06c1.12,0,2-.1,2.79-.18a2.74,2.74,0,0,0,2.39,1,7.39,7.39,0,0,0,1-.08c-.63,4.84-1.13,7.94-1.59,10-.27,1.29-.52,2.52-.78,3.56l-.06.3a2.82,2.82,0,0,0-.09.69,1,1,0,0,0,1,1.07c.92,0,1.26-1,1.39-1.39,1.84-5.18,6.11-14.85,8.13-14.85.34,0,.51.17.84.53a2.66,2.66,0,0,0,2.16,1.06C358.48,110.79,359.5,110.14,359.5,109.38Z"/><path class="b" d="M372.93,111.49l-.25,0a3.24,3.24,0,0,1-.43,0,4.28,4.28,0,0,1-3.35-1.8,2.16,2.16,0,0,0-1.89-1,1.33,1.33,0,0,0,.18-.72c0-.88-1-.88-1.37-.88a5.4,5.4,0,0,0-2.42.64c-4.83,2.72-6.11,8.9-6.11,11.8,0,2.45,1.11,6.11,4.18,6.11s4.79-2.68,5.87-4.28c1.4-2,2.09-4.65,2.16-8.13a8.47,8.47,0,0,0,1.44.13c.72,0,2.92,0,2.92-1.18C373.86,111.86,373.57,111.49,372.93,111.49Zm-11,12.13c-1.06,0-1.29-2.17-1.29-4,0-2.83,1-8.06,3.81-10a2.12,2.12,0,0,1,1.4-.49h.38a1.52,1.52,0,0,0-.54,1.15,1.37,1.37,0,0,0,.43,1,2.74,2.74,0,0,0,1.05.66l.17.07c0,.05.14.28.14,1.43C367.45,118.47,363.89,123.62,361.9,123.62Z"/><path class="d" d="M168.42,70.33a6,6,0,0,0-1.92-1.24,7,7,0,0,0-2.57-.45h-23a6.65,6.65,0,0,0-2.47.43,6.06,6.06,0,0,0-2,1.21,5.13,5.13,0,0,0-1.28,1.83,5.8,5.8,0,0,0-.44,2.33V93.22h7.77V77.64c-.06-1.17.52-1.74,1.75-1.76h4.27V93.22h7.68V75.9h4.11c1.28,0,2,.63,2,1.82v15.5H170V74.44a6.22,6.22,0,0,0-.42-2.27A5.74,5.74,0,0,0,168.42,70.33Z"/><path class="d" d="M190.75,68.58H174.31L174.4,75l12.84,0a2.47,2.47,0,0,1,2,2.13v.63H179.14q-5.85,0-5.84,6.62v3c0,3.86,2,5.8,6,5.8h11.48q6.24,0,6.24-5.8v-13Q197,68.58,190.75,68.58Zm-1.13,16.81c0,1.36-.44,2-1.32,2h-7c-.92,0-1.4-.69-1.4-2V85c0-1.38.48-2.07,1.4-2.07h7c.88,0,1.3.73,1.32,2.17Z"/><polygon class="d" points="212.93 82.69 207.33 68.58 199.22 68.58 209.57 93.22 216.3 93.22 226.66 68.58 218.5 68.58 212.93 82.69"/><path class="d" d="M231.75,66.57h4.36a1.48,1.48,0,0,0,1.71-1.63V63c0-1.08-.56-1.63-1.7-1.63h-4.18c-1.19,0-1.78.55-1.79,1.63v2A1.44,1.44,0,0,0,231.75,66.57Z"/><rect class="d" x="230.14" y="68.58" width="7.73" height="24.64"/><path class="b" d="M276,74.54v13c0,3.8-2.08,5.71-6.15,5.71H252.24v-32h7.66v7.39h9.92C273.87,68.66,275.93,70.61,276,74.54Zm-16,1.39L260,86h6.38a1.67,1.67,0,0,0,1.9-1.88V77.75c0-1.21-.66-1.82-2-1.82Z"/><rect x="308.19" y="61.41" width="7.72" height="31.84"/><path d="M337.85,68.61H326.34c-4.07,0-6.11,1.94-6.11,5.8V87.65c0,3.72,2.08,5.6,6.25,5.6H338c4,.06,6-1.88,6-5.76v-13C343.89,70.59,341.88,68.66,337.85,68.61ZM336.26,84a1.8,1.8,0,0,1-2.05,2h-4.52c-1.15,0-1.74-.7-1.73-2.07V77.79c0-1.25.6-1.86,1.78-1.86h4.39c1.41,0,2.14.58,2.14,1.79Z"/><path d="M297.33,68.61H280.9l.1,6.44,12.82,0a2.45,2.45,0,0,1,2,2.13v.63H285.72c-3.89,0-5.84,2.2-5.84,6.63v3c0,3.86,2,5.8,6,5.8h11.47c4.16,0,6.26-1.94,6.26-5.8v-13C303.59,70.55,301.49,68.61,297.33,68.61ZM296.2,85.42c0,1.36-.43,2-1.31,2h-7c-1,0-1.42-.69-1.42-2V85c0-1.38.46-2.06,1.42-2.06h7c.88,0,1.31.72,1.31,2.16Z"/><path d="M372,74.4a5.93,5.93,0,0,0-.46-2.27,4.78,4.78,0,0,0-1.29-1.82,5.93,5.93,0,0,0-2-1.22,7.11,7.11,0,0,0-2.51-.42H354.49a6.84,6.84,0,0,0-2.5.43,5.68,5.68,0,0,0-1.93,1.22,4.78,4.78,0,0,0-1.29,1.82,5.83,5.83,0,0,0-.45,2.33V93.25h7.76V77.68c-.06-1.18.53-1.75,1.76-1.76h4.5a1.77,1.77,0,0,1,2,1.82v15.5H372V74.44Z"/></svg>