<svg version="1.2" baseProfile="tiny-ps" xmlns="http://www.w3.org/2000/svg" viewBox="0 0 150 150" width="150" height="150">
	<title>mavi-balon-svg</title>
	<style>
		tspan { white-space:pre }
		.shp0 { fill: #595553 } 
		.shp1 { fill: #ee720c } 
		.shp2 { fill: #ffffff } 
	</style>
	<path id="Layer" class="shp0" d="M108.54 117.77C108.54 119.52 108.2 121.25 107.53 122.86C106.86 124.47 105.88 125.94 104.64 127.17C103.41 128.41 101.94 129.38 100.33 130.05C98.72 130.72 96.99 131.06 95.24 131.06L22.12 131.06C20.37 131.06 18.64 130.71 17.03 130.04C15.42 129.38 13.95 128.4 12.72 127.16C11.48 125.93 10.5 124.46 9.84 122.85C9.17 121.24 8.82 119.51 8.82 117.76L8.82 44.64C8.82 42.89 9.16 41.16 9.83 39.55C10.5 37.94 11.47 36.47 12.71 35.24C13.94 34 15.41 33.02 17.02 32.35C18.63 31.68 20.36 31.34 22.11 31.34L95.25 31.34C97 31.34 98.72 31.68 100.34 32.35C101.95 33.02 103.41 34 104.65 35.23C105.88 36.47 106.86 37.93 107.53 39.54C108.2 41.16 108.54 42.88 108.54 44.63L108.54 117.77Z" />
	<path id="Layer" class="shp1" d="M83 50.77L75.45 64.52L89.21 57C101.22 65.8 117.98 63.87 127.68 52.57C137.39 41.28 136.76 24.42 126.25 13.87C115.74 3.33 98.88 2.65 87.55 12.31C76.22 21.97 74.24 38.73 83 50.77L83 50.77Z" />
	<path id="Layer" fill-rule="evenodd" class="shp2" d="M129.63 10.36C135.38 16.11 138.84 23.75 139.35 31.87C139.86 39.99 137.38 48.01 132.39 54.42C127.4 60.84 120.23 65.21 112.24 66.72C104.25 68.22 95.98 66.75 89 62.59L77.78 68.69L63.29 76.69L71.24 62.19L77.39 51C73.23 44.02 71.76 35.75 73.26 27.76C74.76 19.77 79.13 12.61 85.55 7.62C91.97 2.62 99.99 0.15 108.1 0.65C116.21 1.16 123.86 4.61 129.61 10.36L129.63 10.36ZM126.21 13.77C121.13 8.69 114.32 5.72 107.14 5.45C99.97 5.17 92.95 7.62 87.49 12.29C82.04 16.96 78.55 23.51 77.71 30.65C76.88 37.78 78.77 44.97 83 50.77L75.45 64.52L89.21 57C95.01 61.28 102.22 63.2 109.38 62.38C116.54 61.56 123.13 58.06 127.81 52.58C132.5 47.11 134.94 40.06 134.64 32.86C134.35 25.65 131.33 18.83 126.21 13.76L126.21 13.77Z" />
	<path id="Layer" fill-rule="evenodd" class="shp2" d="M101.21 96.92L101.21 115.65C101.17 121.13 98.39 123.87 92.86 123.88L69.05 123.88L69.05 77.88L79.45 77.88L79.45 88.46L92.87 88.46C98.34 88.46 101.13 91.28 101.21 96.92ZM79.51 98.92L79.51 113.43L88.15 113.43C88.51 113.48 88.87 113.44 89.21 113.32C89.55 113.21 89.86 113.01 90.11 112.76C90.36 112.5 90.55 112.19 90.66 111.84C90.78 111.5 90.8 111.14 90.75 110.78L90.75 101.59C90.75 99.81 89.84 98.93 88.03 98.93L79.51 98.92Z" />
	<path id="Layer" class="shp2" d="M16.15 88.46L55.62 88.46C55.92 88.46 56.21 88.47 56.51 88.49C56.8 88.52 57.1 88.56 57.39 88.62C57.68 88.67 57.97 88.75 58.25 88.83C58.54 88.92 58.82 89.02 59.09 89.13C59.33 89.23 59.57 89.35 59.81 89.47C60.04 89.6 60.26 89.74 60.48 89.89C60.7 90.04 60.91 90.2 61.11 90.37C61.31 90.54 61.51 90.72 61.69 90.91C61.87 91.1 62.04 91.3 62.19 91.51C62.35 91.72 62.5 91.94 62.64 92.16C62.77 92.38 62.9 92.61 63.01 92.85C63.13 93.08 63.23 93.32 63.32 93.57C63.42 93.83 63.5 94.09 63.57 94.36C63.65 94.62 63.71 94.89 63.75 95.16C63.8 95.44 63.84 95.71 63.86 95.98C63.88 96.26 63.89 96.53 63.89 96.81L63.89 123.88L53.49 123.88L53.49 101.58C53.52 101.22 53.46 100.86 53.34 100.52C53.21 100.18 53.01 99.87 52.75 99.62C52.49 99.37 52.18 99.17 51.84 99.05C51.5 98.93 51.14 98.88 50.78 98.91L45.22 98.91L45.22 123.91L34.82 123.91L34.82 98.91L29 98.91C27.35 98.91 26.55 99.75 26.65 101.44L26.65 123.87L24.5 123.87C24.22 123.87 23.93 123.86 23.65 123.84C23.37 123.81 23.09 123.78 22.81 123.72C22.53 123.67 22.26 123.61 21.99 123.54C21.71 123.46 21.44 123.37 21.18 123.27C20.93 123.17 20.69 123.06 20.46 122.94C20.22 122.82 20 122.68 19.77 122.54C19.55 122.39 19.34 122.24 19.13 122.07C18.93 121.9 18.73 121.73 18.54 121.54C18.35 121.35 18.17 121.15 18.01 120.94C17.84 120.74 17.68 120.52 17.53 120.3C17.39 120.07 17.25 119.84 17.13 119.61C17 119.37 16.89 119.13 16.79 118.88C16.68 118.61 16.59 118.34 16.51 118.07C16.43 117.79 16.37 117.52 16.31 117.24C16.26 116.95 16.22 116.67 16.2 116.39C16.17 116.1 16.16 115.82 16.16 115.53L16.16 88.46L16.15 88.46Z" />
</svg>